<svg width="31" height="22" viewBox="0 0 31 22" fill="none" xmlns="http://www.w3.org/2000/svg">
<path d="M21.5536 1.43051e-06C20.2274 1.43051e-06 17.6518 1.87317 15.4658 1.87317C13.2808 1.87317 10.5488 9.53674e-07 9.37803 9.53674e-07C1.33932 9.53674e-07 -3.26587 21.6183 2.7442 21.6183C7.81768 21.6183 8.50045 15.2963 15.4462 15.2963C21.0657 15.2963 24.3634 21.5415 28.1097 21.5415C34.1189 21.5415 29.5933 1.43051e-06 21.5536 1.43051e-06ZM8.9088 12.1756C6.58139 12.1756 4.69417 10.2875 4.69417 7.96098C4.69417 5.63356 6.58139 3.74634 8.9088 3.74634C11.2362 3.74634 13.1234 5.63356 13.1234 7.96098C13.1234 10.2875 11.2372 12.1756 8.9088 12.1756ZM20.0898 9.83415C19.5718 9.83415 19.1532 9.41549 19.1532 8.89756C19.1532 8.37963 19.5718 7.96098 20.0898 7.96098C20.6077 7.96098 21.0263 8.37963 21.0263 8.89756C21.0263 9.41549 20.6077 9.83415 20.0898 9.83415ZM22.9585 12.6439C22.4406 12.6439 22.0219 12.2253 22.0219 11.7073C22.0219 11.1894 22.4406 10.7707 22.9585 10.7707C23.4765 10.7707 23.8951 11.1894 23.8951 11.7073C23.8951 12.2253 23.4755 12.6439 22.9585 12.6439ZM22.9585 7.02439C22.4406 7.02439 22.0219 6.60574 22.0219 6.08781C22.0219 5.56987 22.4406 5.15122 22.9585 5.15122C23.4765 5.15122 23.8951 5.56987 23.8951 6.08781C23.8951 6.60574 23.4755 7.02439 22.9585 7.02439ZM25.7683 9.83415C25.2503 9.83415 24.8317 9.41549 24.8317 8.89756C24.8317 8.37963 25.2503 7.96098 25.7683 7.96098C26.2862 7.96098 26.7049 8.37963 26.7049 8.89756C26.7049 9.41549 26.2853 9.83415 25.7683 9.83415ZM8.9088 5.61951C7.61632 5.61951 6.56734 6.66755 6.56734 7.96098C6.56734 9.2544 7.61632 10.3024 8.9088 10.3024C10.2022 10.3024 11.2503 9.2544 11.2503 7.96098C11.2503 6.66755 10.2022 5.61951 8.9088 5.61951Z" fill="#3931FC"/>
</svg>
