<svg width="13" height="13" viewBox="0 0 13 13" fill="none" xmlns="http://www.w3.org/2000/svg">
<path d="M12.5953 11.0415L10.1087 8.55485C9.99645 8.44261 9.84431 8.38026 9.68468 8.38026H9.27814C9.96652 7.49983 10.3756 6.39244 10.3756 5.18778C10.3756 2.32203 8.05353 0 5.18778 0C2.32203 0 0 2.32203 0 5.18778C0 8.05353 2.32203 10.3756 5.18778 10.3756C6.39244 10.3756 7.49983 9.96652 8.38026 9.27814V9.68468C8.38026 9.84431 8.44261 9.99645 8.55485 10.1087L11.0415 12.5953C11.2759 12.8298 11.655 12.8298 11.887 12.5953L12.5928 11.8895C12.8273 11.655 12.8273 11.2759 12.5953 11.0415ZM5.18778 8.38026C3.42443 8.38026 1.9953 6.95362 1.9953 5.18778C1.9953 3.42443 3.42194 1.9953 5.18778 1.9953C6.95112 1.9953 8.38026 3.42194 8.38026 5.18778C8.38026 6.95112 6.95362 8.38026 5.18778 8.38026Z" fill="#707070"/>
</svg>
