<svg width="69" height="52" viewBox="0 0 69 52" fill="none" xmlns="http://www.w3.org/2000/svg">
<path d="M63.417 7.95745H58.6605V0.878886L48.8416 0.729507L48.8926 7.95745H19.3872L19.5889 0.729507L9.974 0.878886V8.10683L5.11555 7.95745C2.43368 7.95745 0.257095 10.1162 0.257095 12.7761V46.5065C0.257095 49.1664 2.43368 51.3251 5.11555 51.3251H63.417C66.0988 51.3251 68.2754 49.1664 68.2754 46.5065V12.7761C68.2754 10.1162 66.0988 7.95745 63.417 7.95745ZM51.2708 3.13882H56.1293V12.7761H51.2708V3.13882ZM19.6909 19.5511C22.6254 19.5511 25.0061 22.6519 25.0061 26.4778C25.0061 30.3038 22.6254 33.4046 19.6909 33.4046C16.7564 33.4046 14.3758 30.3038 14.3758 26.4778C14.3758 22.6519 16.7564 19.5511 19.6909 19.5511ZM12.4032 3.13882H17.2617V12.7761H12.4032V3.13882ZM9.16507 41.5626C9.16507 41.5626 9.74079 36.98 11.0501 36.1151C12.3571 35.2502 16.1272 34.6743 16.1272 34.6743C16.1272 34.6743 18.571 37.2643 19.6107 37.2643C20.648 37.2643 23.0918 34.6743 23.0918 34.6743C23.0918 34.6743 26.862 35.2477 28.1713 36.1151C29.709 37.1318 30.0928 41.5626 30.0928 41.5626H9.16507ZM58.5585 39.2785H36.6955V36.8692H58.5585V39.2785ZM58.5585 34.4599H36.6955V32.0506H58.5585V34.4599ZM58.5585 29.6413H36.6955V27.232H58.5585V29.6413ZM58.5585 24.8226H36.6955V22.4133H58.5585V24.8226Z" fill="white"/>
</svg>
